<svg xmlns="http://www.w3.org/2000/svg" width="830" height="384.568" viewBox="0 0 830 384.568">
  <g id="branches" transform="translate(0 -689.98)">
    <g id="Group_87" data-name="Group 87">
      <path id="Path_30" data-name="Path 30" d="M726.737,216.8c-13.11.987-172.962,12.385-203.034,16.833-38.357,5.674-72.327,15.577-131.96,41.972-59.737,26.44-103.64,48.88-169.3,62.156-56.01,11.334-114.113,3.544-168.584-9.787-12.719-3.117-35.1-13.085-53.862-17.64V399.21c8.117,1.91,16.773,2.518,25.239,3.081,38.138,2.5,187.745,12.276,223.3,5.583,47.586-8.945,86.124-37.3,130.663-53.959,62.83-23.5,106.061-43.868,169.039-59.576,87.767-21.882,190.37-37.3,281.755-43.646V208.069c-39.936,3.269-71.093,6.3-103.263,8.727Z" transform="translate(0 481.911)" fill="#bf6724"/>
      <path id="Path_31" data-name="Path 31" d="M712.253,212.361v1c0,20.932-18.655,38.557-43.4,40.947C589.28,261.994,504.6,275.864,430.5,294.34c-62.978,15.708-106.209,36.071-169.039,59.576-44.539,16.662-83.078,45.016-130.662,53.959a162.359,162.359,0,0,1-21.883,1.94c31.739.743,59.215.464,71.983-1.94,47.585-8.943,86.124-37.3,130.662-53.959,62.832-23.5,106.061-43.868,169.039-59.576,87.768-21.882,190.37-37.3,281.755-43.646V208.069c-18.223,1.491-34.605,2.933-50.1,4.292Z" transform="translate(67.646 481.911)" fill="#a35418"/>
      <path id="Path_37" data-name="Path 37" d="M521.452,364.823c-58.157-2.8-94.049,22.851-106.178,33.33-19.774-10.727-39.091-19.91-57.346-27.73,4-14.534,15.355-41.44,37.454-53.111,5.685-3,7.4-9.307,3.821-14.081s-11.08-6.212-16.765-3.209c-28.551,15.08-41.573,44.84-46.809,61.289-55.482-21.593-89.719-28.586-126.708-35.221-6.57-1.151-13.012,2.387-14.387,7.91s2.843,10.931,9.417,12.085c40.524,7.292,86.211,17.376,152.689,47.02-9.023,14.873-32.227,60.751-7.086,105.272,2.876,5.09,10.122,7.271,16.195,4.85s8.653-8.508,5.776-13.6c-20-35.416-1.034-73.9,6.424-86.576,35.11,17.136,72.609,39.248,108.342,67.5a13.849,13.849,0,0,0,17.189-.437c4.6-4.107,4.367-10.57-.52-14.436A600.352,600.352,0,0,0,435.854,409.8c11.7-9.133,40.182-26.7,84.214-24.59,6.671.313,12.45-3.981,12.831-9.613s-4.743-10.457-11.447-10.779Z" transform="translate(120.662 514.597)" fill="#a35418"/>
      <path id="Path_45" data-name="Path 45" d="M46.76,0c25.825,0,46.76,17.6,46.76,39.3S72.585,78.6,46.76,78.6,0,61,0,39.3,20.935,0,46.76,0Z" transform="translate(486.384 763.481)" fill="#9c1804"/>
      <path id="Path_38" data-name="Path 38" d="M338.478,262.05a53.16,53.16,0,0,0-25.051,6.122c13.047,6.973,21.71,19.221,21.71,33.176s-8.665,26.2-21.71,33.176a53.16,53.16,0,0,0,25.051,6.122c25.826,0,46.76-17.6,46.76-39.3S364.3,262.05,338.478,262.05Z" transform="translate(194.667 501.432)" fill="#e01d00"/>
      <path id="Path_44" data-name="Path 44" d="M46.76,0c25.825,0,46.76,17.6,46.76,39.3S72.585,78.6,46.76,78.6,0,61,0,39.3,20.935,0,46.76,0Z" transform="translate(623.17 849.719)" fill="#9c1804"/>
      <path id="Path_39" data-name="Path 39" d="M422.857,325.384a53.161,53.161,0,0,0-25.051,6.122c13.047,6.973,21.71,19.221,21.71,33.176s-8.663,26.2-21.71,33.176a53.16,53.16,0,0,0,25.051,6.122c25.826,0,46.76-17.6,46.76-39.3s-20.935-39.3-46.76-39.3Z" transform="translate(247.074 524.336)" fill="#e01d00"/>
      <path id="Path_43" data-name="Path 43" d="M46.76,0c25.825,0,46.76,17.6,46.76,39.3S72.585,78.6,46.76,78.6,0,61,0,39.3,20.935,0,46.76,0Z" transform="translate(590.124 955.917)" fill="#9c1804"/>
      <path id="Path_40" data-name="Path 40" d="M402.472,403.377a53.16,53.16,0,0,0-25.051,6.122c13.047,6.973,21.71,19.221,21.71,33.176s-8.663,26.2-21.71,33.176a53.159,53.159,0,0,0,25.051,6.122c25.826,0,46.76-17.6,46.76-39.3S428.3,403.377,402.472,403.377Z" transform="translate(234.413 552.541)" fill="#e01d00"/>
      <path id="Path_42" data-name="Path 42" d="M46.76,0c25.825,0,46.76,17.6,46.76,39.3S72.585,78.6,46.76,78.6,0,61,0,39.3,20.935,0,46.76,0Z" transform="translate(438.38 995.949)" fill="#9c1804"/>
      <path id="Path_41" data-name="Path 41" d="M308.866,432.777a53.161,53.161,0,0,0-25.051,6.122c13.047,6.973,21.71,19.221,21.71,33.176s-8.663,26.2-21.71,33.176a53.16,53.16,0,0,0,25.051,6.122c25.826,0,46.76-17.6,46.76-39.3S334.69,432.777,308.866,432.777Z" transform="translate(176.275 563.173)" fill="#e01d00"/>
    </g>
  </g>
</svg>
