<svg xmlns="http://www.w3.org/2000/svg" width="21.451" height="20.558" viewBox="0 0 21.451 20.558">
  <path id="github" d="M10.726.5A10.633,10.633,0,0,0,0,11.04a10.557,10.557,0,0,0,7.334,10c.536.1.733-.227.733-.507,0-.25-.009-.913-.013-1.792-2.984.635-3.613-1.414-3.613-1.414a2.81,2.81,0,0,0-1.193-1.542c-.972-.653.075-.64.075-.64a2.244,2.244,0,0,1,1.643,1.086,2.31,2.31,0,0,0,3.124.877,2.232,2.232,0,0,1,.679-1.41c-2.382-.264-4.886-1.17-4.886-5.208a4.027,4.027,0,0,1,1.1-2.828,3.688,3.688,0,0,1,.094-2.79s.9-.282,2.95,1.081a10.284,10.284,0,0,1,5.363,0c2.038-1.363,2.936-1.081,2.936-1.081a3.789,3.789,0,0,1,.107,2.79,4.043,4.043,0,0,1,1.1,2.828c0,4.049-2.507,4.94-4.894,5.2a2.5,2.5,0,0,1,.724,1.95c0,1.41-.013,2.544-.013,2.886,0,.276.188.606.737.5a10.525,10.525,0,0,0,7.361-9.987A10.635,10.635,0,0,0,10.726.5Z" transform="translate(0 -0.5)"/>
</svg>
