<svg xmlns="http://www.w3.org/2000/svg" width="14.816" height="14.199" viewBox="0 0 14.816 14.199">
  <path id="github" d="M7.408.5A7.344,7.344,0,0,0,0,7.78a7.292,7.292,0,0,0,5.065,6.907c.37.069.506-.157.506-.35,0-.173-.006-.631-.009-1.238-2.061.439-2.5-.977-2.5-.977a1.941,1.941,0,0,0-.824-1.065c-.671-.451.052-.442.052-.442a1.55,1.55,0,0,1,1.135.75,1.6,1.6,0,0,0,2.158.606A1.541,1.541,0,0,1,6.056,11c-1.645-.182-3.374-.808-3.374-3.6a2.781,2.781,0,0,1,.762-1.953A2.547,2.547,0,0,1,3.509,3.52s.62-.2,2.037.746a7.1,7.1,0,0,1,3.7,0c1.408-.941,2.028-.746,2.028-.746a2.617,2.617,0,0,1,.074,1.927A2.793,2.793,0,0,1,12.112,7.4c0,2.8-1.732,3.412-3.38,3.591a1.727,1.727,0,0,1,.5,1.347c0,.974-.009,1.757-.009,1.993,0,.191.13.419.509.346a7.27,7.27,0,0,0,5.084-6.9A7.345,7.345,0,0,0,7.408.5Z" transform="translate(0 -0.5)"/>
</svg>
