<svg xmlns="http://www.w3.org/2000/svg" xmlns:xlink="http://www.w3.org/1999/xlink" width="633" height="368" viewBox="0 0 633 368">
  <defs>
    <filter id="Rectangle_23" x="-45" y="-30" width="723" height="458" filterUnits="userSpaceOnUse">
      <feOffset dy="15" input="SourceAlpha"/>
      <feGaussianBlur stdDeviation="15" result="blur"/>
      <feFlood flood-opacity="0.161"/>
      <feComposite operator="in" in2="blur"/>
      <feComposite in="SourceGraphic"/>
    </filter>
    <clipPath id="clip-path">
      <g transform="matrix(1, 0, 0, 1, 0, 0)" filter="url(#Rectangle_23)">
        <rect id="Rectangle_23-2" data-name="Rectangle 23" width="633" height="368" rx="10" transform="translate(-0.25 1223.64)" fill="#fff"/>
      </g>
    </clipPath>
  </defs>
  <g id="Mask_Group_2" data-name="Mask Group 2" transform="translate(0.25 -1223.637)" clip-path="url(#clip-path)">
    <g id="binoculars" transform="translate(110.541 1224.049)">
      <g id="Group_57" data-name="Group 57" transform="translate(0.012 0)">
        <path id="Path_59" data-name="Path 59" d="M406.295,257.183,353.242,119.41l-.072-.317-3.055-7.937-.211-.444A58.947,58.947,0,0,0,327.39,86.267L307.858,45.254,295.715,19.731l-.286-.57c-6.7-13.8-23.322-21.5-39.8-18.447s-28.3,16.034-28.307,31.081V139.728c0-10.521-9.538-19.048-21.3-19.048s-21.308,8.527-21.308,19.048V31.794C184.7,16.747,172.881,3.77,156.4.713S123.3,5.357,116.6,19.16l-.283.57L104.168,45.254,84.639,86.267a58.926,58.926,0,0,0-22.515,24.445l-.214.444-3.055,7.937-.069.317L5.734,257.183c-12.769,30.955-3.7,65.73,23.077,88.439s66.095,28.988,100.005,15.966,55.887-42.844,55.89-75.835c0,10.521,9.538,19.048,21.308,19.048s21.3-8.527,21.3-19.048c.028,32.975,22.009,62.772,55.9,75.779s73.2,6.734,99.964-15.958,35.849-57.445,23.109-88.391Zm-281.6,4.318a1.1,1.1,0,0,1,.71.379l.427.382A3.159,3.159,0,0,0,124.693,261.5Zm0,0" transform="translate(-0.027 -0.048)" fill="#4482c3"/>
        <path id="Path_60" data-name="Path 60" d="M269.766,631.571l.427.382a3.16,3.16,0,0,0-1.138-.761A1.1,1.1,0,0,1,269.766,631.571Zm0,0" transform="translate(-144.389 -369.738)" fill="#4482c3"/>
        <path id="Path_61" data-name="Path 61" d="M269.766,631.571l.427.382a3.16,3.16,0,0,0-1.138-.761A1.1,1.1,0,0,1,269.766,631.571Zm0,0" transform="translate(-144.389 -369.738)" fill="#4482c3"/>
      </g>
      <path id="Path_62" data-name="Path 62" d="M669.688,544.46l-.214-.382a53.082,53.082,0,0,0-2.486-5.4c-.852-1.714-1.776-3.363-2.769-5.015a58.756,58.756,0,0,0-3.979-5.841c-.993-1.4-2.131-2.793-3.266-4.189-.569-.7-1.138-1.334-1.706-1.97-.71-.826-1.49-1.652-2.272-2.413a87.2,87.2,0,0,0-18.536-14.792c-2.2-1.335-4.544-2.6-6.889-3.745a92.076,92.076,0,0,0-12.785-5.209c-1.421-.444-2.841-.888-4.262-1.27q-2.169-.67-4.4-1.141c-2.982-.7-5.965-1.208-9.02-1.652-1.562-.191-3.055-.379-4.617-.509-1.562-.188-3.124-.253-4.686-.317s-3.127-.126-4.758-.126c-40.284.034-75.881,23.431-87.934,57.793s2.238,71.739,35.29,92.324,77.22,19.616,109.1-2.391,44.105-59.968,30.186-93.76Zm-86.645,85.711c-35.271-.02-63.848-25.588-63.841-57.116s28.6-57.088,63.867-57.094,63.87,25.541,63.892,57.069c0,31.559-28.618,57.139-63.917,57.142Zm0,0" transform="translate(-263.408 -287.325)" fill="#285680"/>
      <path id="Path_63" data-name="Path 63" d="M615.749,689.735v57.141c-35.3,0-63.917-25.583-63.92-57.141Zm0,0" transform="translate(-296.114 -404.03)" fill="#ff5364"/>
      <path id="Path_64" data-name="Path 64" d="M660.917,568.56,615.75,608.937H551.83c-.016-23.11,15.553-43.954,39.441-52.8s51.381-3.942,69.646,12.418Zm0,0" transform="translate(-296.115 -323.233)" fill="#3b97d3"/>
      <path id="Path_65" data-name="Path 65" d="M753.684,632.641c0,31.559-28.618,57.139-63.917,57.141V632.641l45.167-40.378C746.955,602.951,753.706,617.487,753.684,632.641Zm0,0" transform="translate(-370.133 -346.937)" fill="#f0c419"/>
      <path id="Path_66" data-name="Path 66" d="M441.175,662.8c0,10.521-9.538,19.048-21.3,19.048s-21.308-8.527-21.308-19.048,9.538-19.045,21.308-19.045S441.175,652.286,441.175,662.8Zm0,0" transform="translate(-213.871 -377.1)" fill="#35495e"/>
      <path id="Path_67" data-name="Path 67" d="M441.175,310.3V456.324c0-10.519-9.538-19.045-21.3-19.045s-21.308,8.527-21.308,19.045V310.3c0-10.521,9.538-19.048,21.308-19.048S441.175,299.778,441.175,310.3Zm0,0" transform="translate(-213.871 -170.619)" fill="#285680"/>
      <path id="Path_68" data-name="Path 68" d="M590.591,140.117c-.924-.57-1.917-1.141-2.913-1.649a12.52,12.52,0,0,0-1.634-.888q-1.207-.662-2.483-1.208a23.383,23.383,0,0,0-2.275-1.014,66.732,66.732,0,0,0-6.392-2.222,22.6,22.6,0,0,0-2.769-.764,26.941,26.941,0,0,0-3.906-.888,28.544,28.544,0,0,0-3.907-.7c-.921-.126-1.917-.253-2.841-.317a2.5,2.5,0,0,0-.71-.062,9.5,9.5,0,0,0-1.917-.126c-1.421-.129-2.91-.191-4.4-.191-35.3,0-63.917,25.583-63.92,57.142V114.6h.214c11.2-14.491,29.8-22.981,49.5-22.6A68.234,68.234,0,0,1,571.059,99.1Zm0,0" transform="translate(-263.216 -53.898)" fill="#35495e"/>
      <path id="Path_69" data-name="Path 69" d="M571.059,45.255a68.234,68.234,0,0,0-30.824-7.111c-19.7-.379-38.3,8.111-49.5,22.6h-.214V31.795C490.53,16.748,502.346,3.771,518.827.714s33.1,4.644,39.8,18.447l.286.57Zm0,0" transform="translate(-263.216 -0.048)" fill="#547580"/>
      <path id="Path_70" data-name="Path 70" d="M92.366,490.493c-1.634,0-3.2.065-4.758.126s-3.124.129-4.689.318c-1.562.129-3.052.317-4.617.509-3.052.444-6.034.952-9.02,1.652-1.487.312-2.957.694-4.4,1.141-1.421.382-2.841.826-4.262,1.27a92,92,0,0,0-12.781,5.209c-2.344,1.141-4.689,2.411-6.889,3.745a87.209,87.209,0,0,0-18.539,14.792,25.062,25.062,0,0,0-2.272,2.413c-.569.635-1.135,1.27-1.7,1.969a49.47,49.47,0,0,0-3.268,4.189,58.7,58.7,0,0,0-3.976,5.841c-1,1.652-1.917,3.3-2.772,5.015a54.517,54.517,0,0,0-2.486,5.4l-.211.382c-13.969,33.831-1.757,71.852,30.164,93.9s76.155,23.029,109.254,2.413,47.4-58.052,35.315-92.456S132.706,490.5,92.366,490.493Zm0,139.678c-27.939-.017-52.635-16.236-61.007-40.063a51.021,51.021,0,0,1-2.913-17.079c0-31.556,28.618-57.139,63.92-57.139s63.92,25.583,63.92,57.139S127.668,630.171,92.366,630.171Zm0,0" transform="translate(-0.001 -287.325)" fill="#285680"/>
      <path id="Path_71" data-name="Path 71" d="M206.431,252.841a7.086,7.086,0,0,1-6.735-4.318,5.968,5.968,0,0,1,2.426-7.085,43.694,43.694,0,0,1,8.539-4.5,7.452,7.452,0,0,1,9.293,3.279c1.568,3.183-.019,6.9-3.564,8.341a29.138,29.138,0,0,0-5.666,2.984,7.641,7.641,0,0,1-4.293,1.3Zm0,0" transform="translate(-106.957 -138.508)" fill="#b0d3f0"/>
      <path id="Path_72" data-name="Path 72" d="M156.019,331.393a7.4,7.4,0,0,1-5.779-2.663,5.8,5.8,0,0,1-.933-5.754l9.155-23.779a6.872,6.872,0,0,1,5.355-4.327,7.609,7.609,0,0,1,6.823,2.1,5.833,5.833,0,0,1,1.248,6.355L162.732,327.1A7.087,7.087,0,0,1,156.019,331.393Zm0,0" transform="translate(-79.912 -172.664)" fill="#b0d3f0"/>
      <path id="Path_73" data-name="Path 73" d="M189.224,608.941c.019,27.027-21.157,50.365-50.743,55.922S79,656.674,66.852,631.925A44.4,44.4,0,0,1,64.3,626.02a42.465,42.465,0,0,1-1.848-6.664,50.523,50.523,0,0,1-1.065-10.415C61.384,577.386,90,551.8,125.3,551.8s63.92,25.583,63.92,57.139Zm0,0" transform="translate(-32.939 -323.237)" fill="#b0d3f0"/>
      <path id="Path_74" data-name="Path 74" d="M282.687,114.6v72.633c0-31.559-28.618-57.139-63.92-57.142q-2.168,0-4.331.191a10.029,10.029,0,0,0-1.989.126,2.514,2.514,0,0,0-.71.062c-.924.065-1.917.191-2.841.317a28.538,28.538,0,0,0-3.906.7,4.592,4.592,0,0,0-1.279.253,9.283,9.283,0,0,0-2.2.509c-.141,0-.283,0-.355.126a14.155,14.155,0,0,0-2.841.764,66.724,66.724,0,0,0-6.392,2.222,23.011,23.011,0,0,0-2.272,1.014q-1.277.548-2.486,1.208a12.739,12.739,0,0,0-1.634.888c-.993.509-1.989,1.079-2.91,1.649L202.148,99.1a68.253,68.253,0,0,1,30.824-7.111c19.7-.379,38.3,8.111,49.5,22.6Zm0,0" transform="translate(-97.995 -53.898)" fill="#35495e"/>
      <path id="Path_75" data-name="Path 75" d="M305.3,31.795V60.746h-.214c-11.2-14.491-29.8-22.981-49.5-22.6a68.253,68.253,0,0,0-30.824,7.111l12.147-25.524.283-.57c6.7-13.8,23.322-21.5,39.8-18.447S305.3,16.748,305.3,31.795Zm0,0" transform="translate(-120.609 -0.048)" fill="#547580"/>
      <path id="Path_76" data-name="Path 76" d="M160.344,638.907l-6.961,7.237L117.731,683.35a7.58,7.58,0,0,1-5.4,2.222h-.214a7.4,7.4,0,0,1-5.468-2.54L89.607,662.715,69.792,675.984a8.2,8.2,0,0,1-1.706.826A44.4,44.4,0,0,1,65.53,670.9a42.459,42.459,0,0,1-1.848-6.664l23.083-15.494a7.7,7.7,0,0,1,9.944,1.27l15.978,19.048L139.6,641l9.944-10.347a7.533,7.533,0,0,1,5.4-2.222,8.423,8.423,0,0,1,2.2.318,4.925,4.925,0,0,1,1.348.57.3.3,0,0,1,.286.191,1.884,1.884,0,0,1,.779.444l.427.382a.354.354,0,0,1,.214.253,2.985,2.985,0,0,1,.921,1.143c.072.065.072.126.145.191l.141.253a5.744,5.744,0,0,1-1.065,6.731Zm0,0" transform="translate(-34.173 -368.121)" fill="#ff5364"/>
      <path id="Path_77" data-name="Path 77" d="M243.066,653.827a7.229,7.229,0,0,1-6.361-3.509l-5.142-9.187h-9.812c-3.922,0-7.1-2.843-7.1-6.349s3.18-6.349,7.1-6.349h14.2a7.233,7.233,0,0,1,6.355,3.509l7.1,12.7a5.767,5.767,0,0,1-.311,6.175,7.315,7.315,0,0,1-6.034,3.012Zm0,0" transform="translate(-115.182 -368.122)" fill="#ff5364"/>
    </g>
  </g>
</svg>
