<svg xmlns="http://www.w3.org/2000/svg" xmlns:xlink="http://www.w3.org/1999/xlink" width="608" height="593.911" viewBox="0 0 608 593.911"><defs><linearGradient id="a" x1="0.254" y1="0.346" x2="1.094" y2="1.202" gradientUnits="objectBoundingBox"><stop offset="0" stop-color="#df2526"/><stop offset="0.453" stop-color="#5d1a0d"/></linearGradient><linearGradient id="b" x1="0.112" y1="-2.253" x2="0.831" y2="-0.755" gradientUnits="objectBoundingBox"><stop offset="0.004" stop-color="#df2526"/><stop offset="1" stop-color="#991b1e"/></linearGradient><linearGradient id="c" x1="0.057" y1="2.137" x2="0.722" y2="2.187" xlink:href="#b"/></defs><g transform="translate(-136 -204.606)"><path d="M350.583,263.816c27.25-50.808,53.627-109.757,110.8-126.84,75.635-22.6,130.01,13.619,143.55,34.235,3.781,5.762-3.362,6.091-4.709,8.717-2.038,4-6.4,8.355-9.249,10.63-2.457,1.947-4,2.411-5.932,4-.962.792.532,1.121-.464,2.343-1.211,1.551-1.755,6.238-2.6,8.434-1.109,2.887,1.076,2.525-.283,9.725-.351,1.868,1.642-.215-.283,5.513,0,0-1.143,7.823-1.891,10.166C545.236,334.153,551.734,435.8,433.69,514.179c-37.676,25.008-97.122,42.623-159.116,46.02-51.7,71.922-102.511,158.765-181.214,162.58,22.959-47.888,68.843-119.085,102.907-181.135,25.178-45.8,46.778-83.639,64.914-114.59Z" transform="translate(107.304 74.798)" fill="url(#a)"/><path d="M196.257,493.59c22.178,9.079,79.7,16.427,78.307,16.506C245.458,572.746,148.585,687.189,93.35,674.725,110.875,644.894,166.042,547.783,196.257,493.59Z" transform="translate(107.303 122.851)" fill="url(#b)"/><path d="M330.38,243.177c26.536-53.763,63.952-95.526,99.692-106.19,75.635-22.6,130.01,13.619,143.55,34.235,3.781,5.762-3.362,6.091-4.721,8.717-2.038,4-6.385,8.355-9.249,10.63-2.457,1.947-4,2.411-5.932,4-.962.792.532,1.121-.464,2.343-1.211,1.551-1.755,6.238-2.6,8.434-1.109,2.887,1.076,2.525-.283,9.725-.351,1.868,1.642-.215-.283,5.513,0,0-1.143,7.823-1.891,10.166-12.566,37.9-29.389,112.134-34.778,130.508C404.894,371.092,330.38,243.177,330.38,243.177Z" transform="translate(138.613 74.799)"/><path d="M464.289,200.581a19.031,19.031,0,1,1,18.849-19.03A18.962,18.962,0,0,1,464.289,200.581Z" transform="translate(153.812 79.119)" fill="#130b0e"/><path d="M464.344,163.014a18.59,18.59,0,1,1-18.43,18.589A18.493,18.493,0,0,1,464.344,163.014Zm0-.894a19.5,19.5,0,1,0,19.28,19.495A19.435,19.435,0,0,0,464.344,162.12Z" transform="translate(153.758 79.066)" fill="#fff"/><path d="M463.471,171.594c-1.891,2.808,2.785.826,5.57,2.74s2.638,7.064,4.574,4.257a6.24,6.24,0,0,0-1.608-8.615A6.141,6.141,0,0,0,463.471,171.594Z" transform="translate(156.136 79.962)" fill="#fff"/><path d="M292.92,368.424c-4.823,12.249,8.468,22.121,29.276,18.8,112.938-18.057,104.549-98.764,104.549-98.764-20.638-87.386-154.225-37.687-370.217-88.79-20.491-4.868-24.1,2.955-16.857,22.914,8.208,22.6,44.638,47.888,80.843,54.341,0,0-16.178,4.97-19.891,10.121-8.468,11.751-.566,27.023,19.246,34.268,40.88,14.955,68.345,1.732,92.809-.249A86.391,86.391,0,0,0,191.541,340.1c-10,12.249.215,32.9,21.215,34.416,34.495,2.525,68.345-12.861,88.881-28.325C301.637,346.223,297.708,356.175,292.92,368.424Z" transform="translate(99.759 83.841)" fill="url(#c)"/><path d="M548.479,193.365c-2.853.826-4.608-.283-6.351-3.815s-11.672-2.015-14.287-.283c-2.638,1.732-4.359,9.985-3.532,15.713s-1.528,18.125-1.528,18.125l45.782-19.031c5.6-1.732,8.706-2.592,10.245-3.634-3.4-.645-12.68-4.755-14.6-5.66C560.875,193.263,551.343,192.539,548.479,193.365Z" transform="translate(164.028 82.406)" fill="#99a894"/><path d="M579.28,201.018C565.921,161.418,524,148.84,524,148.84s26.106,15.453,19.427,20.536c-6.679,5.049-9.43,18.7-9.43,18.7l-5.932,4s11.389-2.592,13.676.328,2.751,6.125,6.215,5.049c3.5-1.087,14.717.034,16.642,1.223,1.721,1.042,12.566,4.359,14.751,6.193C580.061,203.905,579.88,202.784,579.28,201.018Z" transform="translate(164.189 77.312)" fill="#99a894"/></g></svg>
