<svg xmlns="http://www.w3.org/2000/svg" width="512" height="512" viewBox="0 0 512 512">
  <g id="mission" transform="translate(0)">
    <path id="Path_78" data-name="Path 78" d="M454.572,100.283a10,10,0,0,1,0-10.566l22.893-36.793A15.005,15.005,0,0,0,476.344,35.5,15.453,15.453,0,0,0,464.307,30H334.73a15,15,0,0,0-15,15V145a15,15,0,0,0,15,15H464.307a15.451,15.451,0,0,0,12.037-5.5,15.007,15.007,0,0,0,1.121-17.421Z" fill="#2e7d32"/>
    <path id="Path_79" data-name="Path 79" d="M10.018,512H266.773a10,10,0,0,0,8.111-15.848L146.507,318.1a10,10,0,0,0-16.223,0L1.906,496.152A10,10,0,0,0,10.018,512Z" fill="#354a67"/>
    <path id="Path_80" data-name="Path 80" d="M274.885,496.152,146.507,318.1a9.936,9.936,0,0,0-8.111-4.152V512H266.774a10,10,0,0,0,8.111-15.848Z" fill="#233145"/>
    <path id="Path_81" data-name="Path 81" d="M324.729,267a15,15,0,0,1-15-15V15a15,15,0,0,1,30,0V252A15,15,0,0,1,324.729,267Z" fill="#66bb6a"/>
    <path id="Path_82" data-name="Path 82" d="M324.73,0V267a15,15,0,0,0,15-15V15A15,15,0,0,0,324.73,0Z" fill="#43a047"/>
    <path id="Path_83" data-name="Path 83" d="M510.168,496.256,400.962,340.634l-76.233-20-76.233,20L139.291,496.256A10,10,0,0,0,147.477,512H501.983a10,10,0,0,0,8.185-15.744Z" fill="#466286"/>
    <path id="Path_84" data-name="Path 84" d="M510.168,496.256,400.962,340.634l-76.233-20V512H501.982A10,10,0,0,0,510.168,496.256Z" fill="#354a67"/>
    <path id="Path_85" data-name="Path 85" d="M331.542,342.053l27.145,25.289a10,10,0,0,0,13.633,0l28.653-26.694-68.057-96.984a10,10,0,0,0-16.371,0l-68.057,96.984,28.648,26.692a10,10,0,0,0,13.634,0l27.14-25.288a10,10,0,0,1,13.632,0Z" fill="#efeff9"/>
    <path id="Path_86" data-name="Path 86" d="M332.915,243.665a9.933,9.933,0,0,0-8.186-4.256V339.37a9.971,9.971,0,0,1,6.812,2.683l27.145,25.289a10,10,0,0,0,13.633,0l28.653-26.694Z" fill="#d5d4f9"/>
  </g>
</svg>
