<svg xmlns="http://www.w3.org/2000/svg" width="275.196" height="289.61" viewBox="0 0 275.196 289.61">
  <g id="routing" transform="translate(-816 -3545.5)">
    <path id="XMLID_2196_" d="M247.521,407.486l-2.907,2.907V344.774H227.645v65.619l-2.907-2.907a8.485,8.485,0,1,0-12,12l17.391,17.4a8.484,8.484,0,0,0,12,0l17.391-17.395a8.484,8.484,0,1,0-12-12Z" transform="translate(717.468 3395.745)"/>
    <path id="XMLID_2195_" d="M417.109,352.451a8.485,8.485,0,0,0-12,12l3.058,3.058h-35.31V344.774H355.887v31.218a8.485,8.485,0,0,0,8.485,8.485h43.5l-2.764,2.764a8.484,8.484,0,1,0,12,12L434.5,381.844a8.485,8.485,0,0,0,0-12Z" transform="translate(654.211 3395.745)"/>
    <path id="XMLID_2162_" d="M76.869,367.507H41.559l3.058-3.058a8.485,8.485,0,1,0-12-12L15.225,369.846a8.485,8.485,0,0,0,0,12l17.391,17.395a8.484,8.484,0,1,0,12-12l-2.764-2.764h43.5a8.485,8.485,0,0,0,8.485-8.485V344.774H76.868v22.733Z" transform="translate(803.259 3395.745)"/>
    <path id="XMLID_2161_" d="M372.857,100.955h35.31l-3.058,3.059a8.484,8.484,0,1,0,12,12l17.391-17.4a8.485,8.485,0,0,0,0-12L417.109,69.223a8.485,8.485,0,0,0-12,12l2.764,2.764h-43.5a8.485,8.485,0,0,0-8.485,8.485V123.6h16.969Z" transform="translate(654.211 3516.512)"/>
    <path id="XMLID_2160_" d="M32.617,116.012a8.484,8.484,0,1,0,12-12l-3.058-3.059h35.31V123.6H93.838V92.47a8.485,8.485,0,0,0-8.485-8.485h-43.5l2.764-2.764a8.485,8.485,0,0,0-12-12L15.225,86.618a8.485,8.485,0,0,0,0,12Z" transform="translate(803.259 3516.512)"/>
    <path id="XMLID_2153_" d="M31.7,197.257a13.467,13.467,0,0,0-13.467,13.467v39.539A13.467,13.467,0,0,0,31.7,263.729H273.749a13.467,13.467,0,0,0,13.467-13.467V210.724a13.467,13.467,0,0,0-13.467-13.467Zm14.947,41.859a8.622,8.622,0,1,1,8.62-8.622A8.621,8.621,0,0,1,46.647,239.116Zm29.49,0a8.622,8.622,0,1,1,8.62-8.622,8.621,8.621,0,0,1-8.62,8.622Zm29.489,0a8.622,8.622,0,1,1,8.62-8.622A8.621,8.621,0,0,1,105.627,239.116Zm153.176,0a8.622,8.622,0,1,1,8.62-8.622A8.621,8.621,0,0,1,258.8,239.116Z" transform="translate(800.873 3459.82)"/>
    <path id="XMLID_62_" d="M218.74,34.365a8.458,8.458,0,0,0,6-2.486l2.906-2.906V94.608h16.969V28.971l2.907,2.907a8.485,8.485,0,1,0,12-12L242.131,2.486a8.484,8.484,0,0,0-12,0l-17.391,17.4a8.485,8.485,0,0,0,6,14.483Z" transform="translate(717.467 3545.5)"/>
  </g>
</svg>
