<svg xmlns="http://www.w3.org/2000/svg" width="238.391" height="238.392" viewBox="0 0 238.391 238.392">
  <g id="Settings" transform="translate(-557 -4083.041)">
    <g id="Group_50" data-name="Group 50" transform="translate(557 4083.041)">
      <path id="Path_56" data-name="Path 56" d="M71.5,41.865l4.938-4.938A6.988,6.988,0,0,0,75.092,26L37.683,3.554a24.877,24.877,0,0,0-34.13,34.13L26,75.087A6.988,6.988,0,0,0,36.925,76.43l4.945-4.938,37.786,37.728,29.594-29.6Z" transform="translate(-0.001 -0.002)"/>
    </g>
    <g id="Group_52" data-name="Group 52" transform="translate(557 4083.041)">
      <path id="Path_57" data-name="Path 57" d="M233.631,27.812a6.983,6.983,0,0,0-11.24-1.93L204.323,43.949a7.135,7.135,0,0,1-9.876,0,6.994,6.994,0,0,1,0-9.876l18.067-18.067a6.988,6.988,0,0,0-1.93-11.24A48.909,48.909,0,0,0,143.444,65.31L65.306,143.445A48.909,48.909,0,0,0,4.761,210.586,6.989,6.989,0,0,0,16,212.516l18.067-18.067a6.983,6.983,0,0,1,9.876,9.876L25.878,222.392a6.988,6.988,0,0,0,1.93,11.24,48.907,48.907,0,0,0,67.133-60.546L173.08,94.952a48.911,48.911,0,0,0,60.551-67.141Z" transform="translate(-0.001 0)"/>
    </g>
    <g id="Group_54" data-name="Group 54" transform="translate(681.084 4207.755)">
      <path id="Path_58" data-name="Path 58" d="M370.5,322.474c-23.708-23.621-36.706-33.006-64.5-54.62l-39.5,39.5c19.536,25.078,31.366,41.252,53.552,63.447a37.085,37.085,0,0,0,26.388,10.642c6.964,0,13.839-1.653,19.616-5.807a34.946,34.946,0,0,0,4.44-53.165Zm-20.117,28.658a7.112,7.112,0,0,1-9.773-.37L312.949,323.1a7.112,7.112,0,0,1-.37-9.773,6.983,6.983,0,0,1,10.107-.242l27.936,27.936A6.982,6.982,0,0,1,350.381,351.132Z" transform="translate(-266.501 -267.854)"/>
    </g>
  </g>
</svg>
