<svg xmlns="http://www.w3.org/2000/svg" width="276" height="275.5" viewBox="0 0 276 275.5">
  <g id="typescript" transform="translate(-270 -3552.5)">
    <path id="Path_46" data-name="Path 46" d="M276,137.75A137.884,137.884,0,0,1,138,275.5C61.785,275.5,0,213.827,0,137.75S61.785,0,138,0,276,61.673,276,137.75Z" transform="translate(270 3552.5)"/>
    <path id="Path_47" data-name="Path 47" d="M416.225,248.6A138.009,138.009,0,0,1,373.3,316.865c-2,.107-4.089.158-6.258.158-28.653,0-44.577-17.906-52.491-31.34l25.978-15.608s8.837,18.779,25.4,18.779,23.2-5.525,23.2-18.227c0-15.467-53.578-20.987-61.863-47.5s2.76-64.077,41.428-61.311c24.164,1.723,37.756,13.591,44.554,22.249l-25.775,18.621c-5.525-16.013-28.169-16.013-32.591-2.76s10.493,20.987,33.695,28.721A55.167,55.167,0,0,1,416.225,248.6Z" transform="translate(125.009 3477.48)" fill="#f2f2f2"/>
    <path id="Path_48" data-name="Path 48" d="M200.534,169.786H83.106V197.5h43.033V317.847H157.5V197.5h43.032Z" transform="translate(231.693 3473.739)" fill="#f2f2f2"/>
  </g>
</svg>
