<svg height="512pt" viewBox="0 0 512.05321 512" width="512pt" xmlns="http://www.w3.org/2000/svg"><g fill="#4482c3"><path d="m504.984375 357.546875-65.941406-191.558594-.089844-.441406-3.796875-11.035156-.261719-.617188c-5.933593-13.746093-15.632812-25.527343-27.984375-33.988281l-24.277344-57.023438-15.09375-35.488281-.355468-.792969c-8.332032-19.191406-28.988282-29.898437-49.472656-25.648437-20.484376 4.25-35.171876 22.292969-35.183594 43.214844v150.070312c0-14.628906-11.855469-26.484375-26.480469-26.484375-14.628906 0-26.484375 11.855469-26.484375 26.484375v-150.070312c-.007812-20.921875-14.699219-38.964844-35.183594-43.214844s-41.140625 6.457031-49.472656 25.648437l-.351562.792969-15.097657 35.488281-24.273437 57.023438c-12.351563 8.460938-22.054688 20.242188-27.984375 33.988281l-.265625.617188-3.796875 11.035156-.085938.441406-65.941406 191.558594c-15.871094 43.039063-4.59375 91.390625 28.683594 122.964844 33.273437 31.574219 82.152343 40.304687 124.300781 22.199219 42.144531-18.105469 69.464844-59.570313 69.46875-105.441407 0 14.628907 11.855469 26.484375 26.484375 26.484375 14.625 0 26.480469-11.855468 26.480469-26.484375.035156 45.847657 27.355468 87.277344 69.484375 105.363281 42.132812 18.085938 90.984375 9.363282 124.25-22.1875 33.261719-31.550781 44.558593-79.871093 28.722656-122.898437zm-350.015625 6.003906c.355469.050781.671875.242188.882812.527344l.53125.53125c-.386718-.457031-.867187-.816406-1.414062-1.058594zm0 0"/><path d="m155.851562 364.078125.53125.53125c-.386718-.457031-.867187-.816406-1.414062-1.058594.355469.050781.671875.242188.882812.527344zm0 0"/><path d="m155.851562 364.078125.53125.53125c-.386718-.457031-.867187-.816406-1.414062-1.058594.355469.050781.671875.242188.882812.527344zm0 0"/></g><path d="m504.984375 357.546875-.265625-.53125c-.898438-2.550781-1.929688-5.054687-3.089844-7.503906-1.058594-2.382813-2.207031-4.675781-3.441406-6.972657-1.492188-2.796874-3.140625-5.511718-4.945312-8.121093-1.234376-1.941407-2.648438-3.882813-4.058594-5.824219-.707032-.972656-1.414063-1.855469-2.121094-2.738281-.882812-1.148438-1.851562-2.296875-2.824219-3.355469-6.6875-7.890625-14.441406-14.8125-23.039062-20.566406-2.738281-1.855469-5.648438-3.621094-8.5625-5.207032-5.09375-2.839843-10.40625-5.261718-15.890625-7.242187-1.765625-.617187-3.53125-1.234375-5.296875-1.765625-1.796875-.621094-3.621094-1.152344-5.472657-1.585938-3.707031-.972656-7.414062-1.679687-11.210937-2.296874-1.941406-.265626-3.796875-.527344-5.738281-.707032-1.941406-.261718-3.882813-.351562-5.824219-.441406-1.945313-.085938-3.886719-.175781-5.914063-.175781-50.070312.046875-94.316406 32.578125-109.296874 80.355469-14.976563 47.773437 2.78125 99.746093 43.863281 128.367187 41.078125 28.621094 95.980469 27.273437 135.609375-3.324219 39.628906-30.601562 54.820312-83.378906 37.519531-130.363281zm-107.695313 119.171875c-43.839843-.027344-79.359374-35.578125-79.351562-79.414062.007812-43.839844 35.542969-79.375 79.382812-79.382813 43.835938-.007813 79.386719 35.511719 79.414063 79.347656-.003906 43.878907-35.570313 79.445313-79.445313 79.449219zm0 0" fill="#285680"/><path d="m397.289062 397.269531v79.449219c-43.878906-.003906-79.445312-35.570312-79.449218-79.449219zm0 0" fill="#ff5364"/><path d="m453.429688 341.128906-56.140626 56.140625h-79.449218c-.019532-32.132812 19.332031-61.113281 49.023437-73.40625 29.691407-12.292969 63.863281-5.480469 86.566407 17.265625zm0 0" fill="#3b97d3"/><path d="m476.734375 397.269531c-.003906 43.878907-35.570313 79.445313-79.445313 79.449219v-79.449219l56.140626-56.140625c14.941406 14.859375 23.332031 35.070313 23.304687 56.140625zm0 0" fill="#f0c419"/><path d="m282.527344 397.269531c0 14.628907-11.855469 26.484375-26.480469 26.484375-14.628906 0-26.484375-11.855468-26.484375-26.484375 0-14.625 11.855469-26.480469 26.484375-26.480469 14.625 0 26.480469 11.855469 26.480469 26.480469zm0 0" fill="#35495e"/><path d="m282.527344 194.238281v203.03125c0-14.625-11.855469-26.480469-26.480469-26.480469-14.628906 0-26.484375 11.855469-26.484375 26.480469v-203.03125c0-14.628906 11.855469-26.484375 26.484375-26.484375 14.625 0 26.480469 11.855469 26.480469 26.484375zm0 0" fill="#285680"/><path d="m406.910156 119.90625c-1.148437-.792969-2.382812-1.585938-3.621094-2.292969-.644531-.464843-1.320312-.875-2.03125-1.234375-1-.613281-2.03125-1.171875-3.085937-1.679687-.917969-.523438-1.859375-.996094-2.828125-1.410157-2.589844-1.175781-5.242188-2.207031-7.945312-3.089843-1.121094-.433594-2.269532-.789063-3.441407-1.0625-1.582031-.542969-3.203125-.957031-4.855469-1.234375-1.589843-.449219-3.214843-.773438-4.855468-.972656-1.144532-.175782-2.382813-.351563-3.53125-.441407-.285156-.074219-.585938-.105469-.882813-.085937-.785156-.148438-1.582031-.207032-2.382812-.175782-1.765625-.179687-3.617188-.265624-5.472657-.265624-43.875.003906-79.445312 35.570312-79.449218 79.449218v-100.988281h.265625c13.925781-20.148437 37.042969-31.953125 61.527343-31.425781 13.414063-.074219 26.613282 3.332031 38.3125 9.886718zm0 0" fill="#35495e"/><path d="m382.632812 62.882812c-11.699218-6.554687-24.898437-9.960937-38.3125-9.886718-24.484374-.527344-47.601562 11.277344-61.527343 31.425781h-.265625v-40.253906c.011718-20.921875 14.699218-38.964844 35.183594-43.214844 20.484374-4.25 41.140624 6.457031 49.472656 25.648437l.355468.792969zm0 0" fill="#547580"/><path d="m114.804688 282.511719c-2.03125 0-3.972657.089843-5.914063.175781-1.941406.089844-3.882813.179688-5.828125.441406-1.941406.179688-3.792969.441406-5.738281.707032-3.792969.617187-7.5 1.324218-11.210938 2.296874-1.847656.433594-3.675781.964844-5.472656 1.585938-1.765625.53125-3.53125 1.148438-5.296875 1.765625-5.480469 1.980469-10.796875 4.402344-15.886719 7.242187-2.914062 1.585938-5.828125 3.351563-8.5625 5.207032-8.597656 5.753906-16.355469 12.675781-23.042969 20.566406-1.011718 1.054688-1.957031 2.175781-2.824218 3.355469-.707032.882812-1.410156 1.765625-2.117188 2.738281-1.453125 1.867188-2.808594 3.8125-4.0625 5.824219-1.800781 2.609375-3.453125 5.324219-4.941406 8.121093-1.238281 2.296876-2.382812 4.589844-3.445312 6.972657-1.15625 2.449219-2.1875 4.953125-3.089844 7.503906l-.261719.53125c-17.363281 47.039063-2.183594 99.902344 37.492187 130.5625 39.671876 30.660156 94.65625 32.019531 135.796876 3.355469 41.140624-28.664063 58.914062-80.714844 43.894531-128.550782-15.015625-47.839843-59.347657-80.394531-109.488281-80.402343zm0 194.207031c-34.726563-.023438-65.421876-22.574219-75.828126-55.703125-2.417968-7.679687-3.636718-15.691406-3.621093-23.746094 0-43.875 35.570312-79.445312 79.449219-79.445312 43.878906 0 79.449218 35.570312 79.449218 79.445312 0 43.878907-35.570312 79.449219-79.449218 79.449219zm0 0" fill="#285680"/><path d="m123.640625 158.996094c-3.789063.003906-7.160156-2.414063-8.371094-6.003906-1.214843-3.589844 0-7.554688 3.015625-9.851563 3.28125-2.492187 6.84375-4.589844 10.613282-6.25 4.449218-1.902344 9.597656.132813 11.550781 4.558594 1.949219 4.425781-.023438 9.597656-4.429688 11.597656-2.5 1.101563-4.863281 2.496094-7.042969 4.148437-1.53125 1.167969-3.40625 1.800782-5.335937 1.800782zm0 0" fill="#b0d3f0"/><path d="m94.597656 220.722656c-2.851562-.003906-5.527344-1.382812-7.183594-3.703125-1.65625-2.324219-2.085937-5.300781-1.160156-8l11.378906-33.0625c.957032-3.066406 3.507813-5.371093 6.65625-6.015625 3.148438-.640625 6.394532.476563 8.480469 2.917969 2.085938 2.441406 2.679688 5.828125 1.550781 8.835937l-11.378906 33.0625c-1.222656 3.566407-4.574218 5.964844-8.34375 5.964844zm0 0" fill="#b0d3f0"/><path d="m194.253906 397.269531c.023438 37.578125-26.296875 70.027344-63.070312 77.753907-36.777344 7.726562-73.929688-11.386719-89.03125-45.796876-1.242188-2.664062-2.300782-5.40625-3.175782-8.210937-.992187-3.027344-1.761718-6.125-2.296874-9.265625-.890626-4.777344-1.332032-9.621094-1.324219-14.480469 0-43.875 35.570312-79.445312 79.449219-79.445312 43.878906 0 79.449218 35.570312 79.449218 79.445312zm0 0" fill="#b0d3f0"/><path d="m229.5625 84.421875v100.988281c-.003906-43.878906-35.570312-79.445312-79.449219-79.449218-1.796875-.003907-3.59375.085937-5.382812.265624-.828125-.035156-1.65625.027344-2.472657.175782-.296874-.019532-.59375.011718-.882812.085937-1.148438.089844-2.382812.265625-3.53125.441407-1.640625.199218-3.265625.523437-4.855469.972656-.542969.03125-1.082031.152344-1.589843.351562-.9375.113282-1.859376.347656-2.734376.707032-.175781 0-.351562 0-.441406.175781-1.214844.21875-2.398437.574219-3.53125 1.0625-2.703125.882812-5.355468 1.914062-7.945312 3.089843-.96875.414063-1.910156.886719-2.824219 1.410157-1.058594.507812-2.089844 1.066406-3.089844 1.679687-.707031.359375-1.386719.769532-2.03125 1.234375-1.234375.707031-2.472656 1.5-3.617187 2.292969l24.273437-57.023438c11.703125-6.554687 24.902344-9.960937 38.3125-9.886718 24.488281-.527344 47.601563 11.277344 61.527344 31.425781zm0 0" fill="#35495e"/><path d="m229.5625 44.167969v40.253906h-.265625c-13.925781-20.148437-37.039063-31.953125-61.527344-31.425781-13.410156-.074219-26.609375 3.332031-38.3125 9.886718l15.097657-35.488281.351562-.792969c8.332031-19.191406 28.988281-29.898437 49.472656-25.648437s35.175782 22.292969 35.183594 43.214844zm0 0" fill="#547580"/><path d="m156.824219 376.527344-8.652344 10.0625-44.3125 51.730468c-1.6875 1.949219-4.132813 3.074219-6.710937 3.089844h-.265626c-2.683593-.082031-5.183593-1.382812-6.796874-3.53125l-21.183594-28.25-24.628906 18.449219c-.65625.46875-1.371094.855469-2.121094 1.148437-1.242188-2.664062-2.300782-5.40625-3.175782-8.210937-.992187-3.027344-1.761718-6.125-2.296874-9.265625l28.691406-21.542969c3.902344-2.910156 9.425781-2.121093 12.359375 1.765625l19.859375 26.484375 33.457031-39.019531 12.359375-14.386719c1.683594-1.953125 4.128906-3.082031 6.707031-3.089843.929688.011718 1.851563.160156 2.738281.441406.597657.171875 1.164063.441406 1.675782.792968.179687 0 .265625.089844.355468.265626.371094.121093.703126.332031.96875.617187l.53125.53125c.140626.066406.238282.199219.265626.351563.503906.429687.898437.976562 1.144531 1.589843.089843.089844.089843.175781.179687.265625l.175782.351563c1.4375 3.109375.921874 6.773437-1.324219 9.359375zm0 0" fill="#ff5364"/><path d="m158.953125 397.269531c-3.347656.003907-6.410156-1.882812-7.90625-4.878906l-6.390625-12.773437h-12.195312c-4.875 0-8.828126-3.953126-8.828126-8.828126s3.953126-8.828124 8.828126-8.828124h17.652343c3.34375 0 6.402344 1.886718 7.898438 4.878906l8.828125 17.65625c1.367187 2.734375 1.222656 5.980468-.386719 8.585937-1.605469 2.601563-4.445313 4.1875-7.5 4.1875zm0 0" fill="#ff5364"/></svg>