<svg xmlns="http://www.w3.org/2000/svg" width="276" height="219.423" viewBox="0 0 276 219.423">
  <g id="Code" transform="translate(-1374 -3599)">
    <g id="Group_29" data-name="Group 29" transform="translate(1565.475 3630.742)">
      <path id="Path_7" data-name="Path 7" d="M436.9,182.23l-63.826-67.62a10.349,10.349,0,1,0-15.052,14.207l57.122,60.513-57.122,60.52a10.352,10.352,0,0,0,15.053,14.214L436.9,196.441A10.354,10.354,0,0,0,436.9,182.23Z" transform="translate(-355.199 -111.361)"/>
    </g>
    <g id="Group_31" data-name="Group 31" transform="translate(1374 3630.741)">
      <path id="Path_8" data-name="Path 8" d="M81.7,249.847,24.586,189.33,81.7,128.813a10.35,10.35,0,1,0-15.056-14.207L2.823,182.227a10.354,10.354,0,0,0,0,14.211l63.829,67.624A10.352,10.352,0,0,0,81.7,249.847Z" transform="translate(-0.001 -111.36)"/>
    </g>
    <g id="Group_33" data-name="Group 33" transform="translate(1486.469 3599)">
      <path id="Path_9" data-name="Path 9" d="M250.913,52.6a10.361,10.361,0,0,0-11.8,8.67l-30.36,198.721a10.352,10.352,0,0,0,8.67,11.8A10.664,10.664,0,0,0,219,271.9a10.353,10.353,0,0,0,10.219-8.787l30.36-198.721A10.352,10.352,0,0,0,250.913,52.6Z" transform="translate(-208.636 -52.478)"/>
    </g>
  </g>
</svg>
