<svg xmlns="http://www.w3.org/2000/svg" xmlns:xlink="http://www.w3.org/1999/xlink" width="286" height="115.367" viewBox="0 0 286 115.367">
  <defs>
    <linearGradient id="linear-gradient" x1="0.5" x2="0.5" y2="1" gradientUnits="objectBoundingBox">
      <stop offset="0" stop-color="#df2526"/>
      <stop offset="0.453" stop-color="#5d1a0d"/>
    </linearGradient>
    <linearGradient id="linear-gradient-2" x1="0.118" y1="1.354" x2="0.836" y2="-0.144" gradientUnits="objectBoundingBox">
      <stop offset="0.004" stop-color="#e01d00"/>
      <stop offset="1" stop-color="#990700"/>
    </linearGradient>
    <linearGradient id="linear-gradient-3" x1="0.057" y1="0.524" x2="0.722" y2="0.474" xlink:href="#linear-gradient-2"/>
  </defs>
  <g id="Group_195" data-name="Group 195" transform="translate(-590 -144.566)">
    <g id="Group_193" data-name="Group 193" transform="translate(590 144.566)">
      <path id="Path_304" data-name="Path 304" d="M168.225,48.335,178.885,74.6h.389l10.661-26.262h6.132V82.122H191.26V57.673h-.313l-9.877,24.4h-3.988l-9.87-24.421H166.9V82.115h-4.807V48.335Z" transform="translate(-50.857 -18.036)" fill="#040b04"/>
      <path id="Path_305" data-name="Path 305" d="M220.583,78.45c0-5.761,4.869-7.014,9.627-7.573,4.515-.525,6.347-.5,6.347-2.3v-.119c0-2.87-1.616-4.536-4.772-4.536-3.288,0-5.119,1.736-5.833,3.528L221.36,66.4c1.637-4.62,5.819-6.468,10.363-6.468,3.988,0,9.745,1.47,9.745,8.84V85.6H236.7V82.131H236.5c-.929,1.9-3.267,4.025-7.422,4.025C224.294,86.17,220.583,83.433,220.583,78.45Zm15.988-1.981V73.2c-.7.707-4.459,1.141-6.048,1.351-2.83.378-5.147,1.323-5.147,3.962,0,2.443,2,3.7,4.758,3.7C234.2,82.208,236.571,79.471,236.571,76.469Z" transform="translate(-68.451 -21.523)" fill="#040b04"/>
      <path id="Path_306" data-name="Path 306" d="M258.973,94.65l1.179-4.039c2.684.743,4.432.448,5.674-2.834l.6-1.68-9.191-25.667h5.23l6.361,19.662h.264l6.361-19.662,5.279.049-10.384,28.67c-1.436,3.927-4,6.055-8.046,6.055A8.986,8.986,0,0,1,258.973,94.65Z" transform="translate(-79.477 -21.674)" fill="#040b04"/>
      <path id="Path_307" data-name="Path 307" d="M296.285,78.45c0-5.761,4.869-7.014,9.627-7.573,4.515-.525,6.347-.5,6.347-2.3v-.119c0-2.87-1.616-4.536-4.772-4.536-3.288,0-5.119,1.736-5.833,3.528L297.062,66.4c1.637-4.62,5.819-6.468,10.363-6.468,3.988,0,9.745,1.47,9.745,8.84V85.6H312.4V82.131H312.2c-.929,1.9-3.267,4.025-7.422,4.025C300,86.17,296.285,83.433,296.285,78.45Zm15.988-1.981V73.2c-.7.707-4.46,1.141-6.048,1.351-2.83.378-5.147,1.323-5.147,3.962,0,2.443,2,3.7,4.758,3.7C309.9,82.208,312.273,79.471,312.273,76.469Z" transform="translate(-91.223 -21.523)" fill="#040b04"/>
      <path id="Path_308" data-name="Path 308" d="M356.15,48.336V71.9c-.014,6.552-4.641,10.688-11.431,10.688-6.062,0-10.841-3.22-10.807-9.967h7.048c.048,2.688,1.651,4.242,4.12,4.242,2.615,0,4.058-1.715,4.071-4.963V48.336Z" transform="translate(-102.542 -18.036)" fill="#990700"/>
      <path id="Path_309" data-name="Path 309" d="M387.681,53.649c-3.468,0-5.375,1.6-5.375,3.78-.049,2.429,2.386,3.514,5.3,4.193l3.01.728c5.819,1.323,10.023,4.3,10.037,9.932-.014,6.188-4.821,10.128-13,10.128-8.122,0-13.3-3.78-13.484-11.087h6.846c.229,3.381,2.879,5.1,6.555,5.1,3.6,0,5.917-1.68,5.938-4.158-.014-2.275-2.047-3.332-5.688-4.221l-3.648-.924c-5.66-1.372-9.135-4.221-9.121-9.2-.035-6.139,5.347-10.226,12.686-10.226,7.456,0,12.36,4.158,12.457,10.177H393.41C393.139,55.2,391.059,53.649,387.681,53.649Z" transform="translate(-114.651 -17.84)" fill="#990700"/>
      <path id="Path_310" data-name="Path 310" d="M70.925,31.03C76.217,21.161,81.343,9.71,92.448,6.392,107.139,2,117.7,9.038,120.331,13.042c.736,1.12-.652,1.183-.915,1.694a7.38,7.38,0,0,1-1.8,2.065c-.478.378-.777.469-1.152.777-.187.154.1.217-.09.455a9.48,9.48,0,0,0-.506,1.638c-.215.56.208.49-.055,1.89-.069.364.319-.042-.055,1.071,0,0-.222,1.519-.368,1.974-6.659,20.089-5.4,39.834-28.328,55.058C79.748,84.521,68.2,87.943,56.158,88.6c-10.044,13.971-19.914,30.84-35.2,31.582,4.46-9.3,13.373-23.133,19.99-35.187,4.89-8.9,9.086-16.246,12.61-22.259Z" transform="translate(-8.402 -5)" fill="url(#linear-gradient)"/>
      <path id="Path_311" data-name="Path 311" d="M40.947,119.414c4.307,1.763,15.482,3.192,15.211,3.206-5.653,12.172-24.471,34.4-35.2,31.981C24.363,148.805,35.079,129.941,40.947,119.414Z" transform="translate(-8.402 -39.417)" fill="url(#linear-gradient-2)"/>
      <path id="Path_312" data-name="Path 312" d="M95.508,27.02c5.154-10.443,12.423-18.556,19.366-20.628,14.691-4.389,25.255,2.646,27.884,6.65.736,1.12-.652,1.183-.916,1.694a7.367,7.367,0,0,1-1.8,2.065c-.478.378-.777.469-1.152.777-.187.154.1.217-.09.455a9.478,9.478,0,0,0-.506,1.638c-.215.56.208.49-.055,1.89-.069.364.319-.042-.055,1.071,0,0-.222,1.519-.368,1.974-2.442,7.364-5.709,21.783-6.756,25.352C109.984,51.868,95.508,27.02,95.508,27.02Z" transform="translate(-30.827 -5)"/>
      <path id="Path_313" data-name="Path 313" d="M135.359,22.681a3.7,3.7,0,1,1,3.662-3.7A3.684,3.684,0,0,1,135.359,22.681Z" transform="translate(-41.713 -8.095)" fill="#100408"/>
      <path id="Path_314" data-name="Path 314" d="M135.321,15.335a3.612,3.612,0,1,1-3.579,3.612A3.594,3.594,0,0,1,135.321,15.335Zm0-.175a3.787,3.787,0,1,0,3.746,3.787A3.777,3.777,0,0,0,135.321,15.16Z" transform="translate(-41.675 -8.056)" fill="#fff"/>
      <path id="Path_315" data-name="Path 315" d="M137.315,17.818c-.368.546.541.161,1.082.532s.513,1.372.888.826a1.21,1.21,0,0,0-.312-1.673A1.193,1.193,0,0,0,137.315,17.818Z" transform="translate(-43.378 -8.699)" fill="#fff"/>
      <path id="Path_316" data-name="Path 316" d="M52.858,59.584c-.936,2.38,1.644,4.3,5.688,3.654,21.939-3.507,20.309-19.186,20.309-19.186C74.846,27.079,48.9,36.731,6.941,26.806c-3.981-.945-4.682.574-3.274,4.452,1.6,4.389,8.67,9.3,15.7,10.555,0,0-3.142.966-3.863,1.967-1.644,2.282-.111,5.25,3.739,6.657,7.942,2.9,13.276.336,18.027-.049a16.793,16.793,0,0,0-4.106,3.7c-1.942,2.38.042,6.391,4.12,6.685,6.7.49,13.276-2.5,17.264-5.5C54.55,55.273,53.787,57.2,52.858,59.584Z" transform="translate(-3 -11.477)" fill="url(#linear-gradient-3)"/>
      <path id="Path_317" data-name="Path 317" d="M161.016,24.272c-.554.161-.894-.056-1.234-.742s-2.268-.392-2.775-.056-.846,1.939-.687,3.052a15.633,15.633,0,0,1-.3,3.521l8.892-3.7a9.885,9.885,0,0,0,1.991-.707,20.733,20.733,0,0,1-2.837-1.1A7.106,7.106,0,0,0,161.016,24.272Z" transform="translate(-49.031 -10.449)" fill="#99a894"/>
      <path id="Path_318" data-name="Path 318" d="M167.145,21.121c-2.595-7.692-10.737-10.135-10.737-10.135s5.071,3,3.773,3.99-1.831,3.633-1.831,3.633l-1.152.777s2.212-.5,2.656.063.534,1.19,1.207.98a7.632,7.632,0,0,1,3.232.238,30.009,30.009,0,0,1,2.865,1.2C167.3,21.681,167.263,21.464,167.145,21.121Z" transform="translate(-49.147 -6.8)" fill="#99a894"/>
    </g>
  </g>
</svg>
