<svg xmlns="http://www.w3.org/2000/svg" xmlns:xlink="http://www.w3.org/1999/xlink" width="262.142" height="269.068" viewBox="0 0 262.142 269.068">
  <defs>
    <linearGradient id="linear-gradient" x1="0.5" y1="1" x2="0.5" gradientUnits="objectBoundingBox">
      <stop offset="0" stop-color="gray" stop-opacity="0.251"/>
      <stop offset="0.535" stop-color="gray" stop-opacity="0.122"/>
      <stop offset="1" stop-color="gray" stop-opacity="0.102"/>
    </linearGradient>
    <linearGradient id="linear-gradient-3" x1="0.5" y1="1" x2="0.5" y2="0" xlink:href="#linear-gradient"/>
  </defs>
  <g id="hello" transform="translate(-641.975 -349)">
    <line id="Line_6" data-name="Line 6" x1="29.129" y2="75.519" transform="translate(644.308 516.585)" fill="none" stroke="#bdbdbd" stroke-miterlimit="10" stroke-width="5"/>
    <line id="Line_8" data-name="Line 8" x2="31.894" y2="9.828" transform="translate(666.404 533.177)" fill="none" stroke="#bdbdbd" stroke-miterlimit="10" stroke-width="5"/>
    <line id="Line_9" data-name="Line 9" x1="31.894" y2="9.828" transform="translate(662.958 533.177)" fill="none" stroke="#bdbdbd" stroke-miterlimit="10" stroke-width="5"/>
    <path id="Path_150" data-name="Path 150" d="M411.694,766.908s-11.148,8.631-2.517,11.508,26.252,5.035,26.252,5.035,2.877-5.035-1.079-7.192-9.35-1.079-9.35-1.079l.719-4.315Z" transform="translate(262.821 -169.41)" fill="#333"/>
    <rect id="Rectangle_40" data-name="Rectangle 40" width="14.384" height="21.577" rx="7.192" transform="translate(675.234 401.869)" fill="#fda57d"/>
    <path id="Path_152" data-name="Path 152" d="M431.2,224.908a7.192,7.192,0,0,0-7.192,7.192v2.444a23.018,23.018,0,0,0,14.385,0V232.1a7.192,7.192,0,0,0-7.192-7.192Z" transform="translate(251.222 177.68)" opacity="0.05"/>
    <path id="Path_153" data-name="Path 153" d="M377.45,140.475s5.754,1.483,8.99-5.057,5.754-10.107,19.06-6.242,15.982,4.336,16.622.682c.437-2.5-4.294-8.562-7.335-12.153a8.514,8.514,0,0,0-6.49-2.8H393.273l-8.99,4.162-6.833,5.945-1.438,8.026Z" transform="translate(281.961 248.122)" opacity="0.05"/>
    <path id="Path_154" data-name="Path 154" d="M377.45,138.475s5.754,1.483,8.99-5.057,5.754-10.106,19.06-6.242,15.982,4.336,16.622.682c.437-2.5-4.294-8.562-7.335-12.153a8.514,8.514,0,0,0-6.49-2.8H393.273l-8.99,4.161-6.833,5.945-1.438,8.026Z" transform="translate(281.961 249.403)"/>
    <ellipse id="Ellipse_22" data-name="Ellipse 22" cx="2.337" cy="4.675" rx="2.337" ry="4.675" transform="translate(659.411 383.169)" fill="#fda57d"/>
    <path id="Path_131" data-name="Path 131" d="M948.9,353.72V349.8h-19.59v18.121a3.82,3.82,0,0,0,3.82,3.82h11.95a3.82,3.82,0,0,0,3.82-3.82v-4.016a5.093,5.093,0,0,0,0-10.187Zm0,8.228v-6.269a3.134,3.134,0,1,1,0,6.269Z" transform="translate(-72.366 97.699)" fill="url(#linear-gradient)"/>
    <path id="Path_132" data-name="Path 132" d="M973.753,362.4a4.65,4.65,0,1,0,4.65,4.65A4.651,4.651,0,0,0,973.753,362.4Zm0,7.512a2.862,2.862,0,1,1,2.862-2.862,2.862,2.862,0,0,1-2.862,2.862Z" transform="translate(-97.847 89.63)" fill="#9c1804"/>
    <path id="Path_133" data-name="Path 133" d="M973.753,362.4a4.65,4.65,0,1,0,4.65,4.65A4.651,4.651,0,0,0,973.753,362.4Zm0,7.512a2.862,2.862,0,1,1,2.862-2.862,2.862,2.862,0,0,1-2.862,2.862Z" transform="translate(-96.847 89.63)" opacity="0.1"/>
    <path id="Path_134" data-name="Path 134" d="M782.493,276.563h17.887V293.09a3.506,3.506,0,0,1-3.506,3.506H786a3.506,3.506,0,0,1-3.506-3.506Z" transform="translate(75.527 171.892)" fill="#9c1804"/>
    <path id="Path_135" data-name="Path 135" d="M966.871,352.455V369a3.488,3.488,0,0,1-3.488,3.488h1.789A3.488,3.488,0,0,0,968.659,369V352.455Z" transform="translate(-94.184 96)" opacity="0.1"/>
    <path id="Path_136" data-name="Path 136" d="M940.586,314.558a1.044,1.044,0,0,0-.79.4c-.235.425.191.9.578,1.2a7.694,7.694,0,0,1,1.959,1.824,2.287,2.287,0,0,1,.108,2.528c-.7.943-2.355,1.146-2.515,2.307-.1.745.541,1.381,1.194,1.755,1.611.923,3.688,1.169,4.855,2.613a3.764,3.764,0,0,1,2.639-1.812c1.076-.245,2.195-.227,3.286-.393a1.136,1.136,0,0,0,.907-.481c.305-.619-.564-1.362-.264-1.983.229-.473.9-.436,1.389-.626a1.809,1.809,0,0,0,.9-2.16,4.068,4.068,0,0,0-1.539-2,17.234,17.234,0,0,0-6.2-2.864,15.884,15.884,0,0,0-3.294-.762A16.463,16.463,0,0,0,940.586,314.558Z" transform="translate(-79.037 120.562)" fill="#eee"/>
    <line id="Line_5" data-name="Line 5" x1="37.4" y2="116.514" transform="translate(698.609 472.712)" fill="none" stroke="#e0e0e0" stroke-miterlimit="10" stroke-width="8"/>
    <path id="Path_137" data-name="Path 137" d="M460.717,329.241c-4.6.267-8.7,4.121-8.7,4.121l-1.982-4.916-.162.053c.968-4.238,20.665-91.6.947-99.132-15.152-5.787-31.223-12.949-43.814-12.68V196.049h17.653v-.736h13.975c2.679-1.914-1.214-3.229-5.564-4.052a3.977,3.977,0,0,0,.466-.658l22.383-40.158s5.149-8.459,1.839-12.5-8.091,10.3-8.091,10.3l-18.389,26.479s-18.559-19.344-30.365-28.964a20.665,20.665,0,0,0-4.4-3.322c-2.155-1.458-3.786-2.214-4.591-1.917l-.023.011a20.6,20.6,0,0,0-5.494-.747h-1.471v-3.018a23.594,23.594,0,0,0,14.574-13.81,26.5,26.5,0,0,0,2.1-23.076,1.531,1.531,0,0,0,.619-.214,2.259,2.259,0,0,0,.668-2.156A16.382,16.382,0,0,0,394.588,84.7c-1.863-1.019-4-1.721-5.371-3.34-1.181-1.391-1.677-3.338-3.105-4.473-1.7-1.349-4.149-1.117-6.232-.515a22.678,22.678,0,0,0-6.5,3.069c-2.253,1.543-4.286,3.525-6.88,4.379-1.843.607-3.842.595-5.7,1.165a9.567,9.567,0,0,0-6.155,6,12.5,12.5,0,0,0-.527,4.692,26.333,26.333,0,0,0-2.642,6.01c-.139.075-.278.148-.416.226l.4-.181a26.474,26.474,0,0,0,7.459,27,23.573,23.573,0,0,0,11.31,8.027v3.651a27.809,27.809,0,0,0-9.026,3.7l0,0s-.235.145-.637.415l-.121.081c-2.721,1.847-11.84,8.6-11.533,15.889q-.018.42,0,.844a28.041,28.041,0,0,0-.751,6.431V220.69a25.991,25.991,0,0,0,5.578,16.12c-7.675,1.72-12.566,4.322-12.566,7.233a2.352,2.352,0,0,1,0,.736c0,5.179,15.478,9.378,34.57,9.378,2.308,0,4.563-.062,6.745-.179l21.573,17.464L369.5,326.975s-11.4,8.826-2.574,11.768,26.847,5.149,26.847,5.149,2.942-5.149-1.1-7.355-9.562-1.1-9.562-1.1l.735-4.413s59.946-51.487,47.442-69.14c-2.392-3.377-4.785-6.862-7.2-10.292l9.437.86,2.147,80.825.269-.087c-.539,1.588-4.352,13.572,4.1,11.544,9.047-2.171,25.508-9.829,25.508-9.829S465.318,328.975,460.717,329.241ZM424.661,190.165l-17.653-5.125v-15.1L426.195,190.3C425.251,190.21,424.661,190.165,424.661,190.165Z" transform="translate(304.268 273.108)" fill="url(#linear-gradient)"/>
    <circle id="Ellipse_18" data-name="Ellipse 18" cx="25.892" cy="25.892" r="25.892" transform="translate(655.815 358.715)"/>
    <path id="Path_138" data-name="Path 138" d="M496.441,288.566l19.76,20.976a3.86,3.86,0,0,0,6.182-.768l21.887-39.267-6.113-2.158-17.981,25.892S486.42,258.058,481.7,259.8,496.441,288.566,496.441,288.566Z" transform="translate(214.754 155.377)" fill="#9c1804"/>
    <line id="Line_7" data-name="Line 7" x2="29.129" y2="75.519" transform="translate(687.821 516.585)" fill="none" stroke="#bdbdbd" stroke-miterlimit="10" stroke-width="5"/>
    <ellipse id="Ellipse_19" data-name="Ellipse 19" cx="33.804" cy="9.17" rx="33.804" ry="9.17" transform="translate(646.825 507.954)" fill="#9c1804"/>
    <ellipse id="Ellipse_20" data-name="Ellipse 20" cx="33.804" cy="9.17" rx="33.804" ry="9.17" transform="translate(646.825 507.235)"/>
    <path id="Path_139" data-name="Path 139" d="M241.574,182.016h10.035a20.138,20.138,0,0,1,20.138,20.138v53.223H214.209v-46a27.365,27.365,0,0,1,27.365-27.365Z" transform="translate(439.448 232.439)" fill="#9c1804"/>
    <path id="Path_140" data-name="Path 140" d="M214.209,386.016h57.538V417.3H239.741a25.532,25.532,0,0,1-25.532-25.532v-5.754Z" transform="translate(439.448 101.8)" fill="#888"/>
    <path id="Path_141" data-name="Path 141" d="M366.071,288.311l35.184,33.43h38.838v-5.035L406.649,307l-28.608-35.329S365.05,279.694,366.071,288.311Z" transform="translate(288.363 147.735)" opacity="0.05"/>
    <path id="Path_142" data-name="Path 142" d="M366.071,286.311l35.184,33.43h38.838v-5.035L406.649,305l-28.608-35.329S365.05,277.694,366.071,286.311Z" transform="translate(288.363 149.016)" fill="#9c1804"/>
    <path id="Path_143" data-name="Path 143" d="M572.012,394.908s18.7,1.438,13.665,5.035H572.012Z" transform="translate(156.445 68.814)" fill="#fda57d"/>
    <path id="Path_144" data-name="Path 144" d="M640.012,261.725s4.675-14.025,7.911-10.069-1.8,12.227-1.8,12.227Z" transform="translate(112.898 161.001)" fill="#fda57d"/>
    <path id="Path_145" data-name="Path 145" d="M214.209,386.016v1.678l57.538.12v-1.8Z" transform="translate(439.448 101.8)" opacity="0.05"/>
    <path id="Path_146" data-name="Path 146" d="M480.619,498.452l38.7,3.527,2.1,79.033,13.856-4.511s20.723-89.543.962-97.09-41.121-17.486-53.874-9.387S480.619,498.452,480.619,498.452Z" transform="translate(217.797 22.644)" fill="#888"/>
    <path id="Path_147" data-name="Path 147" d="M495.012,486.908s21.217,10.788,24.094,23.015" transform="translate(205.755 9.898)" opacity="0.1"/>
    <path id="Path_148" data-name="Path 148" d="M425.608,507.556l30.207,24.454-33.8,54.3,14.025,3.956s58.617-50.346,46.39-67.607-24.454-37.4-39.557-37.759S425.608,507.556,425.608,507.556Z" transform="translate(252.503 11.186)" fill="#888"/>
    <path id="Path_149" data-name="Path 149" d="M414.209,251.016l7.552,12.946,1.8-3.6Z" transform="translate(311.371 188.252)" opacity="0.05"/>
    <path id="Path_151" data-name="Path 151" d="M600.428,775.373s-4.9,13.58,3.95,11.457,24.942-9.611,24.942-9.611-.221-5.794-4.719-5.534-8.506,4.029-8.506,4.029l-1.938-4.807Z" transform="translate(139.113 -171.972)" fill="#333"/>
    <circle id="Ellipse_21" data-name="Ellipse 21" cx="23.015" cy="23.015" r="23.015" transform="translate(659.411 366.627)" fill="#fda57d"/>
    <path id="Path_155" data-name="Path 155" d="M375.472,108.021c-.533-3.01-1.057-6.172-.086-9.071a9.355,9.355,0,0,1,6.019-5.87c1.813-.557,3.768-.546,5.57-1.139,2.536-.835,4.524-2.773,6.727-4.282a22.173,22.173,0,0,1,6.36-3c2.037-.589,4.434-.815,6.094.5,1.4,1.11,1.882,3.013,3.037,4.374,1.344,1.583,3.43,2.27,5.252,3.266a16.019,16.019,0,0,1,8.131,12.525,2.209,2.209,0,0,1-.653,2.108,2.331,2.331,0,0,1-1.312.239c-9.2-.131-18.408-.263-27.568-1.108a66.14,66.14,0,0,0-8.559-.486,28,28,0,0,0-12.6,3.556" transform="translate(284.606 267.794)"/>
    <path id="Path_156" data-name="Path 156" d="M724.751,485.154a.54.54,0,1,0-.521-.539A.54.54,0,0,0,724.751,485.154Z" transform="translate(58.966 11.712)" fill="url(#linear-gradient-3)"/>
    <line id="Line_10" data-name="Line 10" x2="37.4" y2="133.09" transform="translate(862.866 472.712)" fill="none" stroke="#e0e0e0" stroke-miterlimit="10" stroke-width="8"/>
    <rect id="Rectangle_42" data-name="Rectangle 42" width="201.96" height="7.87" transform="translate(698.457 468.815)" fill="#e0e0e0"/>
    <rect id="Rectangle_43" data-name="Rectangle 43" width="33.084" height="4.675" rx="2.337" transform="translate(748.235 466.958)" fill="#535461"/>
    <rect id="Rectangle_44" data-name="Rectangle 44" width="82.229" height="56.855" rx="28.22" transform="translate(768.374 414.837)" fill="url(#linear-gradient)"/>
    <rect id="Rectangle_45" data-name="Rectangle 45" width="77.895" height="55.806" rx="26.835" transform="translate(769.84 415.886)" fill="#3e3f49"/>
    <rect id="Rectangle_46" data-name="Rectangle 46" width="77.895" height="55.806" rx="26.835" transform="translate(770.919 415.886)" fill="#535461"/>
    <circle id="Ellipse_23" data-name="Ellipse 23" cx="2.517" cy="2.517" r="2.517" transform="translate(810.988 440.887)" fill="#e0e0e0"/>
  </g>
</svg>
