<svg xmlns="http://www.w3.org/2000/svg" xmlns:xlink="http://www.w3.org/1999/xlink" width="163.788" height="159.993" viewBox="0 0 163.788 159.993">
  <defs>
    <linearGradient id="linear-gradient" x1="0.254" y1="0.346" x2="1.094" y2="1.202" gradientUnits="objectBoundingBox">
      <stop offset="0" stop-color="#df2526"/>
      <stop offset="0.453" stop-color="#5d1a0d"/>
    </linearGradient>
    <linearGradient id="linear-gradient-2" x1="0.112" y1="-2.253" x2="0.831" y2="-0.755" gradientUnits="objectBoundingBox">
      <stop offset="0.004" stop-color="#df2526"/>
      <stop offset="1" stop-color="#991b1e"/>
    </linearGradient>
    <linearGradient id="linear-gradient-3" x1="0.057" y1="2.137" x2="0.722" y2="2.187" xlink:href="#linear-gradient-2"/>
  </defs>
  <g id="logo-maya-svg" transform="translate(-58 -97.007)">
    <path id="Path_117" data-name="Path 117" d="M162.653,165.908c7.341-13.687,14.447-29.567,29.848-34.169,20.375-6.087,35.023,3.669,38.671,9.222,1.019,1.552-.906,1.641-1.269,2.348a10.291,10.291,0,0,1-2.492,2.864c-.662.525-1.077.65-1.6,1.077-.259.213.143.3-.125.631a13.04,13.04,0,0,0-.7,2.272c-.3.778.29.68-.076,2.62-.095.5.442-.058-.076,1.485,0,0-.308,2.107-.509,2.739-9.235,27.859-7.484,55.243-39.284,76.356-10.15,6.737-26.164,11.482-42.864,12.4-13.928,19.375-27.615,42.769-48.817,43.8,6.185-12.9,18.545-32.08,27.722-48.8,6.783-12.339,12.6-22.531,17.487-30.869Z" transform="translate(-17.94 -32.801)" fill="url(#linear-gradient)"/>
    <path id="Path_118" data-name="Path 118" d="M121.072,493.59c5.974,2.446,21.47,4.425,21.095,4.447-7.841,16.877-33.937,47.707-48.817,44.349C98.071,534.35,112.932,508.189,121.072,493.59Z" transform="translate(-17.933 -285.639)" fill="url(#linear-gradient-2)"/>
    <path id="Path_119" data-name="Path 119" d="M330.38,160.356c7.149-14.483,17.228-25.734,26.856-28.606,20.375-6.087,35.023,3.669,38.671,9.222,1.019,1.552-.906,1.641-1.272,2.348a10.242,10.242,0,0,1-2.492,2.864c-.662.525-1.077.65-1.6,1.077-.259.213.143.3-.125.631a13.049,13.049,0,0,0-.7,2.272c-.3.778.29.68-.076,2.62-.094.5.442-.058-.076,1.485,0,0-.308,2.107-.509,2.739-3.385,10.21-7.917,30.208-9.369,35.157C350.453,194.814,330.38,160.356,330.38,160.356Z" transform="translate(-182.675 -32.808)" fill="#010101"/>
    <path id="Path_120" data-name="Path 120" d="M450.518,172.773a5.127,5.127,0,1,1,5.078-5.127A5.108,5.108,0,0,1,450.518,172.773Z" transform="translate(-262.645 -55.536)" fill="#130b0e"/>
    <path id="Path_121" data-name="Path 121" d="M450.233,162.361a5.008,5.008,0,1,1-4.965,5.008A4.982,4.982,0,0,1,450.233,162.361Zm0-.241a5.252,5.252,0,1,0,5.194,5.252A5.236,5.236,0,0,0,450.233,162.12Z" transform="translate(-262.36 -55.258)" fill="#fff"/>
    <path id="Path_122" data-name="Path 122" d="M463.151,169.63c-.509.756.75.223,1.5.738s.711,1.9,1.232,1.147a1.681,1.681,0,0,0-.433-2.321A1.654,1.654,0,0,0,463.151,169.63Z" transform="translate(-274.873 -59.975)" fill="#fff"/>
    <path id="Path_123" data-name="Path 123" d="M105.387,244.107c-1.3,3.3,2.281,5.959,7.887,5.066,30.424-4.864,28.164-26.606,28.164-26.606-5.56-23.541-41.546-10.153-99.732-23.919-5.52-1.311-6.493.8-4.541,6.173,2.211,6.087,12.025,12.9,21.778,14.639,0,0-4.358,1.339-5.358,2.726-2.281,3.166-.152,7.28,5.185,9.232,11.013,4.029,18.411.467,25-.067a23.272,23.272,0,0,0-5.694,5.127c-2.693,3.3.058,8.863,5.715,9.271,9.293.68,18.411-3.464,23.943-7.63C107.736,238.127,106.677,240.807,105.387,244.107Z" transform="translate(21.759 -80.383)" fill="url(#linear-gradient-3)"/>
    <path id="Path_124" data-name="Path 124" d="M529.7,189.013c-.768.223-1.241-.076-1.711-1.028s-3.144-.543-3.849-.076-1.174,2.69-.952,4.233a21.8,21.8,0,0,1-.412,4.883l12.333-5.127a13.856,13.856,0,0,0,2.76-.979,28.369,28.369,0,0,1-3.934-1.525A9.87,9.87,0,0,0,529.7,189.013Z" transform="translate(-316.399 -72.834)" fill="#99a894"/>
    <path id="Path_125" data-name="Path 125" d="M538.892,162.9C535.293,152.228,524,148.84,524,148.84s7.033,4.163,5.233,5.532-2.54,5.038-2.54,5.038l-1.6,1.077s3.068-.7,3.684.088.741,1.65,1.674,1.36a10.565,10.565,0,0,1,4.483.329c.464.281,3.385,1.174,3.974,1.668C539.1,163.674,539.053,163.372,538.892,162.9Z" transform="translate(-317.246 -46.028)" fill="#99a894"/>
  </g>
</svg>
