<svg xmlns="http://www.w3.org/2000/svg" width="78" height="19.497" viewBox="0 0 78 19.497">
  <g id="logo-text" transform="translate(-36 -34.125)">
    <path id="Path_15" data-name="Path 15" d="M164.83,48.336l4.758,11.721h.173l4.758-11.721h2.737v15.08h-2.145V52.5h-.139l-4.408,10.89h-1.78l-4.405-10.9h-.139V63.412h-2.145V48.336Z" transform="translate(-126.093 -14.008)" fill="#040b04"/>
    <path id="Path_16" data-name="Path 16" d="M220.583,68.195c0-2.571,2.173-3.13,4.3-3.38,2.015-.234,2.833-.222,2.833-1.025v-.053a1.87,1.87,0,0,0-2.13-2.024,2.614,2.614,0,0,0-2.6,1.574l-2.049-.472c.73-2.062,2.6-2.887,4.625-2.887,1.78,0,4.349.656,4.349,3.946v7.51h-2.13V69.838h-.087a3.494,3.494,0,0,1-3.313,1.8C222.239,71.641,220.583,70.419,220.583,68.195Zm7.136-.884V65.852a8.406,8.406,0,0,1-2.7.6c-1.263.169-2.3.59-2.3,1.768,0,1.09.892,1.649,2.124,1.649A2.638,2.638,0,0,0,227.719,67.311Z" transform="translate(-166.331 -21.983)" fill="#040b04"/>
    <path id="Path_17" data-name="Path 17" d="M258.012,75.7l.526-1.8a1.762,1.762,0,0,0,2.532-1.265l.269-.75-4.1-11.456h2.334l2.839,8.775h.118l2.839-8.775,2.356.022-4.634,12.8a3.6,3.6,0,0,1-3.591,2.7A4.01,4.01,0,0,1,258.012,75.7Z" transform="translate(-191.547 -22.327)" fill="#040b04"/>
    <path id="Path_18" data-name="Path 18" d="M296.285,68.195c0-2.571,2.173-3.13,4.3-3.38,2.015-.234,2.833-.222,2.833-1.025v-.053a1.871,1.871,0,0,0-2.13-2.024,2.614,2.614,0,0,0-2.6,1.574l-2.049-.472c.731-2.062,2.6-2.887,4.625-2.887,1.78,0,4.349.656,4.349,3.946v7.51h-2.13V69.838h-.087a3.5,3.5,0,0,1-3.313,1.8C297.941,71.641,296.285,70.419,296.285,68.195Zm7.136-.884V65.852a8.408,8.408,0,0,1-2.7.6c-1.263.169-2.3.59-2.3,1.768,0,1.09.892,1.649,2.124,1.649A2.639,2.639,0,0,0,303.421,67.311Z" transform="translate(-218.409 -21.983)" fill="#040b04"/>
    <path id="Path_19" data-name="Path 19" d="M343.837,48.336V58.852c-.006,2.924-2.071,4.77-5.1,4.77-2.706,0-4.839-1.437-4.823-4.449h3.146a1.742,1.742,0,0,0,1.839,1.893c1.167,0,1.811-.765,1.817-2.215V48.336Z" transform="translate(-244.294 -14.008)" fill="#990700"/>
    <path id="Path_20" data-name="Path 20" d="M380.2,50.347c-1.548,0-2.4.715-2.4,1.687-.022,1.084,1.065,1.568,2.365,1.871l1.343.325c2.6.59,4.473,1.921,4.48,4.433-.006,2.762-2.152,4.52-5.8,4.52-3.625,0-5.938-1.687-6.018-4.948h3.055c.1,1.509,1.285,2.274,2.926,2.274,1.607,0,2.641-.75,2.65-1.856-.006-1.015-.913-1.487-2.539-1.884l-1.628-.412c-2.526-.612-4.077-1.884-4.071-4.108-.016-2.74,2.387-4.564,5.662-4.564,3.328,0,5.517,1.856,5.56,4.542h-3.028C382.636,51.041,381.707,50.347,380.2,50.347Z" transform="translate(-271.989 -13.56)" fill="#990700"/>
  </g>
</svg>
