<svg xmlns="http://www.w3.org/2000/svg" width="216.747" height="216.747" viewBox="0 0 216.747 216.747"><circle cx="108.374" cy="108.374" r="108.374" transform="translate(0 0)" fill="#9c1804"/><path d="M78.707,160.413l-.01,67.019a6.325,6.325,0,0,0,6.32,6.319H213.464a6.322,6.322,0,0,0,6.323-6.319l-.123-67.146L149.717,198.71l-71.01-38.3" transform="translate(-42.706 -86.981)" fill="#aab6b3"/><path d="M78.707,173.214l71.01,41.125,69.947-41.06.123,66.5a6.321,6.321,0,0,1-6.323,6.318H85.017a6.325,6.325,0,0,1-6.32-6.318Z" transform="translate(-42.706 -93.997)" fill="#d8d8d8"/><g transform="translate(35.991 79.217)"><path d="M233.987,214.416l69.947-41.06.123,66.5a6.321,6.321,0,0,1-6.323,6.318Z" transform="translate(-162.967 -173.291)" fill="#e5e5e5"/><path d="M78.707,173.214l71.01,41.125L85.017,246.1a6.325,6.325,0,0,1-6.32-6.318Z" transform="translate(-78.697 -173.214)" fill="#e5e5e5"/></g><path d="M219.788,157.275a6.321,6.321,0,0,0-6.323-6.318H85.017a6.325,6.325,0,0,0-6.32,6.318l71.02,37.947Z" transform="translate(-42.706 -81.919)" fill="#e1e1e1"/></svg>