<svg xmlns="http://www.w3.org/2000/svg" width="198.243" height="49.553" viewBox="0 0 198.243 49.553">
  <g id="maya-logo-text" transform="translate(-140 -55.686)">
    <path id="Path_15" data-name="Path 15" d="M169.049,48.336l12.093,29.791h.441l12.093-29.791h6.956V86.661h-5.453V58.927h-.355l-11.2,27.679H179.1L167.9,58.9h-.354v27.75h-5.453V48.336Z" transform="translate(-22.093 7.866)"/>
    <path id="Path_16" data-name="Path 16" d="M220.583,80.938c0-6.535,5.523-7.956,10.921-8.591,5.122-.6,7.2-.564,7.2-2.6v-.135c0-3.255-1.833-5.145-5.413-5.145-3.729,0-5.806,1.969-6.617,4l-5.208-1.2c1.857-5.24,6.6-7.336,11.755-7.336,4.524,0,11.055,1.667,11.055,10.028V89.045h-5.413v-3.93h-.22c-1.054,2.152-3.705,4.565-8.419,4.565C224.792,89.7,220.583,86.591,220.583,80.938Zm18.136-2.247V74.983c-.795.8-5.059,1.294-6.861,1.532-3.211.429-5.838,1.5-5.838,4.494,0,2.771,2.266,4.192,5.4,4.192C236.028,85.2,238.719,82.1,238.719,78.691Z" transform="translate(-34.193 5.467)"/>
    <path id="Path_17" data-name="Path 17" d="M259.206,99.248l1.337-4.582c3.045.842,5.028.508,6.436-3.215l.684-1.906L257.238,60.429h5.933l7.215,22.3h.3l7.215-22.3,5.988.056L272.109,93.007c-1.629,4.454-4.54,6.868-9.127,6.868A10.193,10.193,0,0,1,259.206,99.248Z" transform="translate(-41.776 5.364)"/>
    <path id="Path_18" data-name="Path 18" d="M296.285,80.938c0-6.535,5.523-7.956,10.921-8.591,5.122-.6,7.2-.564,7.2-2.6v-.135c0-3.255-1.833-5.145-5.413-5.145-3.729,0-5.806,1.969-6.617,4l-5.208-1.2c1.857-5.24,6.6-7.336,11.755-7.336,4.524,0,11.055,1.667,11.055,10.028V89.045h-5.413v-3.93h-.22c-1.054,2.152-3.706,4.565-8.419,4.565C300.494,89.7,296.285,86.591,296.285,80.938Zm18.136-2.247V74.983c-.795.8-5.059,1.294-6.861,1.532-3.211.429-5.838,1.5-5.838,4.494,0,2.771,2.266,4.192,5.4,4.192C311.73,85.2,314.421,82.1,314.421,78.691Z" transform="translate(-49.854 5.467)"/>
    <path id="Path_19" data-name="Path 19" d="M359.137,48.336V75.062c-.016,7.432-5.264,12.124-12.967,12.124-6.876,0-12.3-3.652-12.259-11.306h7.995c.055,3.049,1.873,4.812,4.673,4.812,2.966,0,4.6-1.945,4.618-5.629V48.336Z" transform="translate(-57.638 7.865)" fill="#990700"/>
    <path id="Path_20" data-name="Path 20" d="M389.5,54.45c-3.934,0-6.1,1.818-6.1,4.288-.056,2.755,2.706,3.986,6.011,4.756l3.414.826c6.6,1.5,11.369,4.883,11.385,11.267-.016,7.019-5.469,11.489-14.745,11.489-9.214,0-15.091-4.288-15.3-12.577h7.765c.26,3.835,3.265,5.78,7.436,5.78,4.084,0,6.711-1.906,6.735-4.716-.016-2.58-2.321-3.779-6.452-4.788l-4.139-1.048c-6.42-1.556-10.362-4.788-10.346-10.441-.04-6.963,6.066-11.6,14.39-11.6,8.458,0,14.021,4.716,14.131,11.545h-7.695C395.688,56.213,393.328,54.45,389.5,54.45Z" transform="translate(-65.966 8)" fill="#990700"/>
  </g>
</svg>
